<svg width="125" height="125" viewBox="0 0 125 125" fill="none" xmlns="http://www.w3.org/2000/svg">
<path d="M54.824 89.0714C49.2509 89.0714 44.7148 93.6076 44.7148 99.1806C45.2656 112.562 64.35 112.562 64.9008 99.1806C64.9008 93.6076 60.397 89.0714 54.824 89.0714ZM54.824 103.911C52.1995 103.911 50.0934 101.773 50.0934 99.1806C50.3526 92.8948 59.3278 92.8948 59.587 99.1806C59.5546 101.773 57.4161 103.911 54.824 103.911Z" fill="url(#paint0_linear_218_136)"/>
<path d="M27.6068 44.552C22.0338 44.552 17.4976 49.0881 17.4976 54.6612C18.0484 68.0429 37.1328 68.0429 37.6837 54.6612C37.7161 49.0881 33.1799 44.552 27.6068 44.552ZM27.6068 59.3918C24.9823 59.3918 22.8762 57.2533 22.8762 54.6612C23.1355 48.3753 32.1106 48.3753 32.3698 54.6612C32.3374 57.2533 30.2313 59.3918 27.6068 59.3918Z" fill="url(#paint1_linear_218_136)"/>
<path d="M70.6358 54.1428C65.9052 49.4122 57.6105 49.4122 52.8475 54.1428C51.6486 55.3416 49.899 57.9013 48.1817 66.4553C47.3069 70.8943 46.8532 74.8148 46.8208 74.9768C46.7236 75.7869 47.0153 76.5969 47.5985 77.1801C48.1817 77.7634 48.9917 78.0226 49.8018 77.9578C55.0508 77.4393 68.2057 75.074 70.6358 71.9311C75.3988 67.2005 75.3988 58.8734 70.6358 54.1428ZM66.8773 68.1401C65.3868 69.6306 58.9066 71.2183 52.6531 72.1579C53.5927 65.872 55.2128 59.3918 56.6709 57.9337C57.9021 56.7025 59.8786 55.9572 61.8551 55.9572C68.5946 55.8924 70.8627 63.8632 66.8773 68.1401Z" fill="url(#paint2_linear_218_136)"/>
<path d="M30.0693 74.2316C24.4963 74.2316 19.9601 78.7678 19.9601 84.3408C20.5109 97.7226 39.5953 97.7226 40.1462 84.3408C40.1786 78.7678 35.6424 74.2316 30.0693 74.2316ZM30.0693 89.0714C27.4448 89.0714 25.3387 86.9329 25.3387 84.3408C25.598 78.055 34.5731 78.055 34.8323 84.3408C34.8323 86.9329 32.6939 89.0714 30.0693 89.0714Z" fill="url(#paint3_linear_218_136)"/>
<path d="M37.4893 17.3348C31.9163 17.3348 27.3801 21.871 27.3801 27.444C27.9309 40.8258 47.0153 40.8258 47.5661 27.444C47.5985 21.871 43.0623 17.3348 37.4893 17.3348ZM37.4893 32.1746C34.8648 32.1746 32.7587 30.0361 32.7587 27.444C33.0179 21.1582 41.9931 21.1582 42.2523 27.444C42.2523 30.0361 40.1138 32.1746 37.4893 32.1746Z" fill="url(#paint4_linear_218_136)"/>
<path d="M123.126 1.68494C114.961 -5.57296 93.2196 13.9975 84.8925 22.1626C78.1854 28.7725 72.1911 35.9332 68.141 42.0246C63.1188 38.9465 59.9758 33.4383 59.9758 27.444V12.6042C59.9758 5.67031 54.338 0.0324707 47.4041 0.0324707C34.638 0.0324707 22.7143 6.57755 13.7715 18.5012C-4.21126 41.4738 -4.21126 82.6883 13.7715 105.661C31.5274 130.156 63.2484 130.156 81.0043 105.661C89.7527 93.9964 94.5805 78.5086 94.5805 62.0811C94.5805 57.9661 93.1224 54.0455 90.5627 50.9026C100.121 43.6771 132.166 11.6646 123.126 1.68494ZM84.9249 48.5373C84.8925 48.5373 84.8925 48.5697 84.8601 48.5697C80.1943 52.1339 75.8849 54.888 72.3855 56.4108C73.3252 57.9661 73.876 59.7158 74.1028 61.4978C77.6346 60.0074 81.8143 57.4801 86.3181 54.1751C88.1974 56.346 89.2343 59.1325 89.2343 62.0811C86.9014 137.285 7.87444 137.285 5.54154 62.0811C5.54154 30.8138 24.3019 5.4111 47.3717 5.4111C51.3571 5.4111 54.5972 8.65123 54.5972 12.6366V27.4764C54.5972 35.35 58.7122 42.5755 65.3221 46.6256C64.512 48.0837 63.8316 49.4445 63.2808 50.7406C65.0628 50.935 66.8125 51.5182 68.3678 52.4579C69.0806 50.8702 70.0203 49.0881 71.1867 47.1764C71.2515 47.0792 71.3163 46.982 71.3811 46.8524C73.8112 42.9967 77.0837 38.6225 81.0043 34.1511C85.9617 35.0583 89.8175 38.8817 90.6923 43.8391C88.7482 45.4916 86.8042 47.0792 84.9249 48.5373ZM99.2787 35.7064C97.9178 37.0672 96.557 38.4281 95.1313 39.7565C93.3816 35.0907 89.6879 31.397 85.0221 29.6473C87.0958 27.444 89.1046 25.4351 91.3403 23.329C96.4274 24.3659 100.38 28.3189 101.45 33.4383C100.704 34.2483 99.9591 34.9935 99.2787 35.7064ZM115.285 15.9739C112.822 19.9593 109.485 24.3659 105.597 28.8697C103.782 24.5603 100.218 20.9961 95.9089 19.1817C101.32 14.1919 115.155 4.27705 119.303 5.4435C119.594 5.96192 119.594 8.97525 115.285 15.9739Z" fill="url(#paint5_linear_218_136)"/>
<defs>
<linearGradient id="paint0_linear_218_136" x1="0.311387" y1="61.9946" x2="124.785" y2="61.9946" gradientUnits="userSpaceOnUse">
<stop offset="2.49422e-07" stop-color="#FD675C"/>
<stop offset="1" stop-color="#FA3078"/>
</linearGradient>
<linearGradient id="paint1_linear_218_136" x1="0.367311" y1="61.9766" x2="124.845" y2="61.9766" gradientUnits="userSpaceOnUse">
<stop offset="2.49422e-07" stop-color="#FD675C"/>
<stop offset="1" stop-color="#FA3078"/>
</linearGradient>
<linearGradient id="paint2_linear_218_136" x1="0.45765" y1="61.9965" x2="124.675" y2="61.9965" gradientUnits="userSpaceOnUse">
<stop offset="2.49422e-07" stop-color="#FD675C"/>
<stop offset="1" stop-color="#FA3078"/>
</linearGradient>
<linearGradient id="paint3_linear_218_136" x1="0.439213" y1="61.987" x2="124.911" y2="61.987" gradientUnits="userSpaceOnUse">
<stop offset="2.49422e-07" stop-color="#FD675C"/>
<stop offset="1" stop-color="#FA3078"/>
</linearGradient>
<linearGradient id="paint4_linear_218_136" x1="0.445204" y1="62.0367" x2="124.915" y2="62.0367" gradientUnits="userSpaceOnUse">
<stop offset="2.49422e-07" stop-color="#FD675C"/>
<stop offset="1" stop-color="#FA3078"/>
</linearGradient>
<linearGradient id="paint5_linear_218_136" x1="0.292524" y1="62.016" x2="124.714" y2="62.016" gradientUnits="userSpaceOnUse">
<stop offset="2.49422e-07" stop-color="#FD675C"/>
<stop offset="1" stop-color="#FA3078"/>
</linearGradient>
</defs>
</svg>
