<svg width="72" height="72" viewBox="0 0 72 72" fill="none" xmlns="http://www.w3.org/2000/svg">
<rect width="72" height="72" rx="36" fill="url(#paint0_linear_178_152)"/>
<path d="M16.8371 33.9777C15.721 35.0962 15.721 36.9127 16.8371 38.0313L31.1236 52.3486C32.2397 53.4671 34.0523 53.4671 35.1685 52.3486C36.2846 51.2301 36.2846 49.4135 35.1685 48.295L25.7483 38.8635H53.1427C54.7231 38.8635 56 37.5839 56 36C56 34.4161 54.7231 33.1365 53.1427 33.1365H25.7572L35.1596 23.705C36.2757 22.5865 36.2757 20.7699 35.1596 19.6514C34.0434 18.5329 32.2308 18.5329 31.1147 19.6514L16.8282 33.9687L16.8371 33.9777Z" fill="white"/>
<defs>
<linearGradient id="paint0_linear_178_152" x1="70.2581" y1="4.7647" x2="-0.381113" y2="6.85029" gradientUnits="userSpaceOnUse">
<stop stop-color="#FF675C"/>
<stop offset="1" stop-color="#FD3078"/>
</linearGradient>
</defs>
</svg>
