<svg width="125" height="124" viewBox="0 0 125 124" fill="none" xmlns="http://www.w3.org/2000/svg">
<path d="M48.8443 106.327H6.43009V111.678H48.8443V106.327Z" fill="url(#paint0_linear_218_101)"/>
<path d="M48.8443 12.3546H6.43009V17.705H48.8443V12.3546Z" fill="url(#paint1_linear_218_101)"/>
<path d="M47.0933 44.4895H8.18113V49.84H47.0933V44.4895Z" fill="url(#paint2_linear_218_101)"/>
<path d="M52.3464 59.341H2.89557V64.6914H52.3464V59.341Z" fill="url(#paint3_linear_218_101)"/>
<path d="M47.0933 74.1601H8.18113V79.5105H47.0933V74.1601Z" fill="url(#paint4_linear_218_101)"/>
<path d="M55.0378 62C55.0378 54.6067 52.2491 48.2186 46.542 42.4791C42.6508 38.5879 37.7868 35.3776 32.8255 32.3295C37.7868 29.2814 42.6508 26.0387 46.542 22.1799C52.2491 16.4728 55.0378 10.0847 55.0378 2.659C55.0378 1.16736 53.838 0 52.3788 0C50.8872 0 49.7198 1.19979 49.7198 2.659C49.7198 15.4676 39.1811 22.2772 27.6696 29.2165C16.1581 22.2772 5.61942 15.4676 5.61942 2.659C5.61942 1.16736 4.41963 0 2.96042 0C1.50122 0 0.236572 1.19979 0.236572 2.659C0.236572 10.0523 3.02528 16.4404 8.73239 22.1799C12.6236 26.0711 17.4876 29.2814 22.4489 32.3295C17.4876 35.3776 12.6236 38.6203 8.73239 42.4791C3.02528 48.2186 0.236572 54.6067 0.236572 62C0.236572 69.3933 3.02528 75.7814 8.73239 81.5209C12.6236 85.4121 17.4876 88.6224 22.4489 91.6705C17.4876 94.7186 12.6236 97.9613 8.73239 101.82C3.02528 107.56 0.236572 113.948 0.236572 121.341C0.236572 122.833 1.43636 124 2.89557 124C4.35477 124 5.55456 122.8 5.55456 121.341C5.55456 108.532 16.0933 101.723 27.6048 94.7835C39.1163 101.723 49.655 108.532 49.655 121.341C49.655 122.833 50.8548 124 52.314 124C53.8056 124 54.973 122.8 54.973 121.341C54.973 113.948 52.1843 107.56 46.4772 101.82C42.5859 97.9289 37.7219 94.7186 32.7606 91.6705C37.7219 88.6224 42.5859 85.3797 46.4772 81.5209C52.2491 75.7814 55.0378 69.4257 55.0378 62ZM27.6372 88.5575C16.1257 81.6182 5.58699 74.8086 5.58699 62C5.58699 49.1914 16.1257 42.3818 27.6372 35.4425C39.1487 42.3818 49.6874 49.1914 49.6874 62C49.6874 74.8086 39.1487 81.6182 27.6372 88.5575Z" fill="url(#paint5_linear_218_101)"/>
<path d="M124.399 60.6705L116.584 47.1161C116.097 46.273 115.222 45.7866 114.282 45.7866H100.176L93.1393 33.5941C92.6529 32.751 91.7774 32.2646 90.837 32.2646H75.2073C74.2669 32.2646 73.359 32.7835 72.905 33.5941L65.0901 47.1485C64.6037 47.9916 64.6037 48.9969 65.0901 49.84L72.1267 62.0324L65.0901 74.2249C64.6037 75.068 64.6037 76.0732 65.0901 76.9163L72.905 90.4707C73.3914 91.3138 74.2669 91.8002 75.2073 91.8002H90.837C91.7774 91.8002 92.6853 91.2814 93.1393 90.4707L100.176 78.2782H114.282C115.222 78.2782 116.13 77.7594 116.584 76.9488L124.399 63.3944C124.885 62.5188 124.885 61.5136 124.399 60.6705ZM76.6989 37.6151H89.2481L95.5064 48.478L89.2481 59.341H76.6989L70.4405 48.478L76.6989 37.6151ZM89.2481 86.4174H76.6989L70.4405 75.5544L76.6989 64.6914H89.2481L95.5064 75.5544L89.2481 86.4174ZM112.725 72.8954H100.176L93.9175 62.0324L100.176 51.1695H112.725L118.983 62.0324L112.725 72.8954Z" fill="url(#paint6_linear_218_101)"/>
<defs>
<linearGradient id="paint0_linear_218_101" x1="0.211819" y1="61.6318" x2="124.777" y2="61.6318" gradientUnits="userSpaceOnUse">
<stop offset="2.49422e-07" stop-color="#FD675C"/>
<stop offset="1" stop-color="#FA3078"/>
</linearGradient>
<linearGradient id="paint1_linear_218_101" x1="0.211819" y1="62.1879" x2="124.777" y2="62.1879" gradientUnits="userSpaceOnUse">
<stop offset="2.49422e-07" stop-color="#FD675C"/>
<stop offset="1" stop-color="#FA3078"/>
</linearGradient>
<linearGradient id="paint2_linear_218_101" x1="0.232421" y1="62.3156" x2="124.759" y2="62.3156" gradientUnits="userSpaceOnUse">
<stop offset="2.49422e-07" stop-color="#FD675C"/>
<stop offset="1" stop-color="#FA3078"/>
</linearGradient>
<linearGradient id="paint3_linear_218_101" x1="0.277401" y1="61.9098" x2="124.795" y2="61.9098" gradientUnits="userSpaceOnUse">
<stop offset="2.49422e-07" stop-color="#FD675C"/>
<stop offset="1" stop-color="#FA3078"/>
</linearGradient>
<linearGradient id="paint4_linear_218_101" x1="0.232421" y1="62.2555" x2="124.759" y2="62.2555" gradientUnits="userSpaceOnUse">
<stop offset="2.49422e-07" stop-color="#FD675C"/>
<stop offset="1" stop-color="#FA3078"/>
</linearGradient>
<linearGradient id="paint5_linear_218_101" x1="0.236572" y1="62.0123" x2="124.755" y2="62.0123" gradientUnits="userSpaceOnUse">
<stop offset="2.49422e-07" stop-color="#FD675C"/>
<stop offset="1" stop-color="#FA3078"/>
</linearGradient>
<linearGradient id="paint6_linear_218_101" x1="64.6751" y1="62.0123" x2="124.755" y2="62.0123" gradientUnits="userSpaceOnUse">
<stop offset="2.49422e-07" stop-color="#FD675C"/>
<stop offset="1" stop-color="#FA3078"/>
</linearGradient>
</defs>
</svg>
