<svg width="125" height="125" viewBox="0 0 125 125" fill="none" xmlns="http://www.w3.org/2000/svg">
<path d="M101.25 88.9314L89.1083 70.9127C87.3323 68.2971 84.6844 66.4887 81.5844 65.8106L73.1885 63.97C74.1896 62.1939 74.7385 60.1596 74.7385 57.996V47.9533C74.7385 42.5283 70.3146 38.1043 64.8896 38.1043H48.6146C47.7104 38.1043 46.8708 38.5564 46.3865 39.3314C45.9021 40.1064 45.8375 41.0429 46.1927 41.8825L50.2615 50.9241V57.996C50.2615 60.1596 50.8427 62.1939 51.8115 63.97L43.4156 65.8106C40.3479 66.4887 37.6677 68.2971 35.8917 70.9127L23.75 88.9314C22.7812 90.3845 22.2646 92.0637 22.2646 93.8075C22.2646 97.2304 24.2667 100.201 27.1406 101.622C28.3031 102.203 29.5948 102.106 30.9833 102.106C32.4688 102.106 33.6312 101.331 33.6312 99.846C33.6312 98.3606 32.4365 97.1981 30.9833 97.1981C29.1104 97.1981 27.5927 95.6804 27.5927 93.8075C27.5927 93.1293 27.7865 92.4835 28.174 91.9023L40.3156 73.8835C41.3167 72.3981 42.8021 71.3971 44.5458 71.0096L56.1385 68.4585C57.9792 69.5887 60.1427 70.2346 62.4677 70.2346C64.7927 70.2346 66.9562 69.5887 68.7969 68.4585L80.3896 71.0096C82.1333 71.3971 83.651 72.4304 84.6198 73.8835L96.7615 91.9023C97.149 92.4512 97.3427 93.1293 97.3427 93.8075C97.3427 95.6804 95.825 97.1981 93.9521 97.1981C92.4667 97.1981 91.3042 98.3929 91.3042 99.846C91.3042 101.331 92.499 101.945 93.9521 101.945C96.0833 101.945 98.0208 101.751 99.5385 100.492C101.444 98.8773 102.671 96.4877 102.671 93.8075C102.735 92.0314 102.219 90.3523 101.25 88.9314ZM64.8896 43.4002C67.2792 43.4002 69.249 45.2731 69.4104 47.6304H54.6531L52.7479 43.4002H64.8896ZM69.4104 57.9637C69.4104 61.7741 66.3104 64.8741 62.5 64.8741C58.6896 64.8741 55.5896 61.7741 55.5896 57.9637V52.9585H69.4104V57.9637Z" fill="url(#paint0_linear_218_120)"/>
<path d="M87.8167 91.0627C87.3646 91.9345 86.4604 92.4512 85.4917 92.4512H82.65V99.846C82.65 101.331 81.4552 101.945 80.0021 101.945C78.5167 101.945 77.3219 101.331 77.3219 99.846V92.4512H76.3854C74.2219 92.4512 72.575 95.0023 72.575 98.3929C72.575 99.8783 71.3802 101.041 69.9271 101.041C68.4417 101.041 67.2792 99.846 67.2792 98.3929C67.2792 91.9668 71.1865 87.1231 76.4177 87.1231H80.6156L77.5479 82.3762C76.7406 81.1491 77.0958 79.5023 78.3229 78.695C79.55 77.8877 81.1969 78.2429 82.0042 79.47L87.7521 88.3179C88.2365 89.1575 88.2687 90.1908 87.8167 91.0627Z" fill="url(#paint1_linear_218_120)"/>
<path d="M57.7531 98.3929C57.7531 99.8783 56.5583 101.041 55.1052 101.041C53.6198 101.041 52.4573 99.846 52.4573 98.3929C52.4573 94.7439 51.0042 92.4512 48.6469 92.4512H47.7104V99.846C47.7104 101.331 46.5156 101.945 45.0625 101.945C43.5771 101.945 42.4146 101.331 42.4146 99.846V92.4512H39.5729C38.6042 92.4512 37.7 91.9023 37.2479 91.0627C36.7958 90.1908 36.8281 89.1575 37.3448 88.3502L43.0927 79.5023C43.9 78.2752 45.5469 77.92 46.774 78.7273C48.001 79.5346 48.3562 81.1814 47.549 82.4085L44.4812 87.1554H48.6792C53.1677 87.1231 57.7531 90.6106 57.7531 98.3929Z" fill="url(#paint2_linear_218_120)"/>
<path d="M112.746 97.1658H12.2542C10.7688 97.1658 9.60625 98.3606 9.60625 99.8137V110.341C9.60625 111.794 10.801 112.989 12.2542 112.989H13.1906V121.32C13.1906 122.805 14.3854 123.968 15.8385 123.968C17.324 123.968 18.4865 122.773 18.4865 121.32V113.053L106.481 113.247V121.352C106.481 122.838 107.676 124 109.129 124C110.615 124 111.777 122.805 111.777 121.352V113.247H112.681C113.392 113.247 114.07 112.956 114.554 112.472C115.071 111.988 115.329 111.31 115.329 110.599V99.846C115.394 98.3606 114.199 97.1658 112.746 97.1658ZM14.9344 107.693V102.494H110.098V107.919L14.9344 107.693Z" fill="url(#paint3_linear_218_120)"/>
<path d="M76.3854 30.2575H3.14792C1.6625 30.2575 0.5 29.0627 0.5 27.5773C0.5 26.0918 1.69479 24.9293 3.14792 24.9293H76.3854C77.8708 24.9293 79.0333 26.1241 79.0333 27.5773C79.0333 29.0627 77.8385 30.2575 76.3854 30.2575Z" fill="url(#paint4_linear_218_120)"/>
<path d="M114.651 124.032H10.349C4.92396 124.032 0.5 119.609 0.5 114.184V11.3023C0.5 9.81685 1.69479 8.65435 3.14792 8.65435H75.4167C76.9021 8.65435 78.0646 9.84914 78.0646 11.3023C78.0646 12.7877 76.8698 13.9502 75.4167 13.9502H5.82812V114.184C5.82812 116.67 7.8625 118.704 10.349 118.704H114.651C117.137 118.704 119.172 116.67 119.172 114.184V28.4491C119.172 26.9637 120.367 25.8012 121.82 25.8012C123.305 25.8012 124.468 26.996 124.468 28.4491V114.184C124.5 119.609 120.076 124.032 114.651 124.032Z" fill="url(#paint5_linear_218_120)"/>
<path d="M85.2333 42.6898C84.7167 42.6898 84.1677 42.5283 83.7156 42.2377C83.0052 41.7533 82.5531 40.9137 82.5531 40.0418V35.0366H81.1646C77.0635 35.0366 73.7052 31.7106 73.7052 27.5773V7.49185C73.7052 3.3908 77.0635 0.0324707 81.1646 0.0324707H117.041C121.174 0.0324707 124.5 3.35851 124.5 7.49185V27.5773C124.5 31.6783 121.174 35.0366 117.041 35.0366H105.577L86.1698 42.5283C85.8792 42.6252 85.5562 42.6898 85.2333 42.6898ZM81.1646 5.3606C80.0021 5.3606 79.0333 6.29705 79.0333 7.49185V27.5773C79.0333 28.7398 79.9698 29.7085 81.1646 29.7085H85.2333C86.7187 29.7085 87.8812 30.9033 87.8812 32.3564V36.1346L104.124 29.87C104.415 29.7408 104.77 29.6762 105.093 29.6762H117.041C118.203 29.6762 119.172 28.7398 119.172 27.545V7.49185C119.172 6.32935 118.235 5.3606 117.041 5.3606H81.1646Z" fill="url(#paint6_linear_218_120)"/>
<path d="M112.52 15.8877H85.7177C84.2323 15.8877 83.0698 14.6929 83.0698 13.2398C83.0698 11.7543 84.2646 10.5918 85.7177 10.5918H112.52C114.005 10.5918 115.168 11.7866 115.168 13.2398C115.168 14.6929 113.973 15.8877 112.52 15.8877Z" fill="url(#paint7_linear_218_120)"/>
<path d="M105.093 24.5096H85.7177C84.2323 24.5096 83.0698 23.3148 83.0698 21.8616C83.0698 20.3762 84.2646 19.2137 85.7177 19.2137H105.093C106.578 19.2137 107.741 20.4085 107.741 21.8616C107.741 23.3148 106.546 24.5096 105.093 24.5096Z" fill="url(#paint8_linear_218_120)"/>
<defs>
<linearGradient id="paint0_linear_218_120" x1="0.512947" y1="61.9796" x2="124.578" y2="61.9796" gradientUnits="userSpaceOnUse">
<stop offset="2.49422e-07" stop-color="#FD675C"/>
<stop offset="1" stop-color="#FA3078"/>
</linearGradient>
<linearGradient id="paint1_linear_218_120" x1="0.336818" y1="61.9919" x2="124.478" y2="61.9919" gradientUnits="userSpaceOnUse">
<stop offset="2.49422e-07" stop-color="#FD675C"/>
<stop offset="1" stop-color="#FA3078"/>
</linearGradient>
<linearGradient id="paint2_linear_218_120" x1="0.117115" y1="61.9072" x2="124.471" y2="61.9072" gradientUnits="userSpaceOnUse">
<stop offset="2.49422e-07" stop-color="#FD675C"/>
<stop offset="1" stop-color="#FA3078"/>
</linearGradient>
<linearGradient id="paint3_linear_218_120" x1="0.483336" y1="62.119" x2="124.589" y2="62.119" gradientUnits="userSpaceOnUse">
<stop offset="2.49422e-07" stop-color="#FD675C"/>
<stop offset="1" stop-color="#FA3078"/>
</linearGradient>
<linearGradient id="paint4_linear_218_120" x1="0.5" y1="61.6943" x2="124.512" y2="61.6943" gradientUnits="userSpaceOnUse">
<stop offset="2.49422e-07" stop-color="#FD675C"/>
<stop offset="1" stop-color="#FA3078"/>
</linearGradient>
<linearGradient id="paint5_linear_218_120" x1="0.5" y1="62.0276" x2="124.532" y2="62.0276" gradientUnits="userSpaceOnUse">
<stop offset="2.49422e-07" stop-color="#FD675C"/>
<stop offset="1" stop-color="#FA3078"/>
</linearGradient>
<linearGradient id="paint6_linear_218_120" x1="0.518131" y1="62.0259" x2="124.5" y2="62.0259" gradientUnits="userSpaceOnUse">
<stop offset="2.49422e-07" stop-color="#FD675C"/>
<stop offset="1" stop-color="#FA3078"/>
</linearGradient>
<linearGradient id="paint7_linear_218_120" x1="0.401449" y1="61.6695" x2="124.506" y2="61.6695" gradientUnits="userSpaceOnUse">
<stop offset="2.49422e-07" stop-color="#FD675C"/>
<stop offset="1" stop-color="#FA3078"/>
</linearGradient>
<linearGradient id="paint8_linear_218_120" x1="83.0443" y1="21.8368" x2="107.753" y2="21.8368" gradientUnits="userSpaceOnUse">
<stop offset="2.49422e-07" stop-color="#FD675C"/>
<stop offset="1" stop-color="#FA3078"/>
</linearGradient>
</defs>
</svg>
