<svg width="127" height="118" viewBox="0 0 127 118" fill="none" xmlns="http://www.w3.org/2000/svg">
<path d="M45.8469 118L43.9055 116.956C29.1957 109.13 17.846 99.7372 10.1551 89.0777C3.43485 79.6854 -0.0746007 69.6968 6.84955e-05 60.3045C0.0747377 49.2723 5.22691 40.1036 13.7392 35.7802C22.6995 31.2331 34.1239 32.724 45.2496 39.8054C56.0766 32.724 67.277 31.1586 76.3866 35.5565C84.8243 39.6564 90.1258 48.3032 90.5738 58.8882C90.9471 68.1314 87.7364 78.0455 81.1655 87.5123C73.7732 98.3209 62.4982 108.16 47.7137 116.882L45.8469 118ZM25.0142 40.9981C22.2515 40.9981 19.6381 41.5945 17.3233 42.7871C11.4991 45.7688 7.915 52.3285 7.84033 60.379C7.76566 66.9387 10.3791 89.4504 45.6976 109.055C69.6664 94.4447 83.4802 75.9583 82.8082 59.2609C82.5095 51.5831 78.9254 45.5452 73.0265 42.7126C65.933 39.2836 56.674 41.1472 47.639 47.7814L45.3243 49.4214L43.0095 47.7814C36.7373 43.3089 30.4651 40.9981 25.0142 40.9981Z" fill="url(#paint0_linear_114_1759)"/>
<path fill-rule="evenodd" clip-rule="evenodd" d="M94.6059 69.9949L101.028 61.7208L103.566 60.6772L107.524 55.6083L78.7014 43.0107L48.8337 4.69615L52.4925 0L96.9954 19.53L126.863 57.8446L123.204 62.5407L114.991 58.8882L109.838 65.5224L109.39 68.2805L102.969 76.5546L94.6059 69.9949Z" fill="white"/>
<path fill-rule="evenodd" clip-rule="evenodd" d="M70.7864 53.1484L53.3138 30.3386L65.1862 15.132L81.1654 39.8054L109.092 49.1977L97.2193 64.4043L70.7864 53.1484Z" fill="white"/>
<path fill-rule="evenodd" clip-rule="evenodd" d="M95.054 21.9899L124.474 59.7081L116.409 56.2047L116.335 56.0556L108.494 46.8124L113.273 53.9684L114.02 55.1611L106.852 64.2552L106.478 67.0132L102.446 72.2312L100.654 70.8149L98.9368 69.4731L102.969 64.2552L105.508 63.2116L112.377 54.4156L80.6428 40.4763L51.2231 2.83258L95.054 21.9899Z" fill="url(#paint1_linear_114_1759)"/>
<path fill-rule="evenodd" clip-rule="evenodd" d="M64.9623 20.4245L57.1967 30.3386L72.7278 50.614L96.2486 60.6772L104.014 50.7631L79.1494 42.4144L64.9623 20.4245Z" fill="url(#paint2_linear_114_1759)"/>
<defs>
<linearGradient id="paint0_linear_114_1759" x1="14.4563" y1="94.738" x2="75.8896" y2="33.1999" gradientUnits="userSpaceOnUse">
<stop offset="2.49422e-07" stop-color="#FF675C"/>
<stop offset="1" stop-color="#FD3078"/>
</linearGradient>
<linearGradient id="paint1_linear_114_1759" x1="74.2444" y1="44.8345" x2="96.0474" y2="22.9944" gradientUnits="userSpaceOnUse">
<stop offset="2.49422e-07" stop-color="#FF675C"/>
<stop offset="1" stop-color="#FD3078"/>
</linearGradient>
<linearGradient id="paint2_linear_114_1759" x1="71.6349" y1="49.4942" x2="87.1662" y2="33.9364" gradientUnits="userSpaceOnUse">
<stop offset="2.49422e-07" stop-color="#FF675C"/>
<stop offset="1" stop-color="#FD3078"/>
</linearGradient>
</defs>
</svg>
