<svg width="105" height="124" viewBox="0 0 105 124" fill="none" xmlns="http://www.w3.org/2000/svg">
<path d="M69.8522 75.9625C69.4002 74.5743 67.8829 73.7995 66.4948 74.2838C66.0751 74.4129 59.8767 76.5436 55.1633 80.8696V61.9839C55.1633 49.0383 68.3995 42.1942 68.5286 42.1297C69.8522 41.484 70.3687 39.8698 69.7231 38.5462C69.0774 37.2226 67.4632 36.7061 66.1396 37.3517C65.72 37.5454 59.7476 40.6123 55.1633 46.6493V9.71726C55.1633 8.23223 53.9689 7.07003 52.5161 7.07003C51.0311 7.07003 49.8689 8.26451 49.8689 9.71726V46.6493C45.2846 40.6123 39.3123 37.5454 38.8926 37.3517C37.569 36.7061 35.9871 37.2226 35.3091 38.5462C34.6635 39.8698 35.18 41.4517 36.5036 42.1297C36.6327 42.1942 49.8689 48.9737 49.8689 61.9839V80.8696C45.1555 76.5436 38.9571 74.4452 38.5375 74.2838C37.1493 73.8318 35.632 74.5743 35.18 75.9625C34.728 77.3507 35.4705 78.868 36.8587 79.32C36.9879 79.3522 49.8689 83.8719 49.8689 91.6199V114.218C49.8689 115.703 51.0634 116.865 52.5161 116.865C54.0011 116.865 55.1633 115.671 55.1633 114.218V91.6199C55.1633 85.131 64.5578 80.5467 68.1735 79.32C69.5617 78.868 70.3042 77.3507 69.8522 75.9625Z" fill="url(#paint0_linear_218_105)"/>
<path d="M104.331 61.9839C104.331 57.9162 102.781 54.0745 100.005 51.169C100.941 49.1351 101.425 46.9076 101.425 44.6155C101.425 38.6108 98.0032 33.2195 92.741 30.5722C92.741 30.4108 92.741 30.2817 92.741 30.1203C92.741 22.3723 87.0915 15.9156 79.6986 14.6566C79.2144 6.52122 72.4026 0 64.0735 0C59.5861 0 55.4216 1.87243 52.4838 5.10075C49.546 1.87243 45.3815 0 40.8941 0C32.5973 0 25.7856 6.52122 25.269 14.6889C17.8762 15.9479 12.2266 22.4046 12.2266 30.1526C12.2266 30.314 12.2266 30.4431 12.2266 30.6045C6.96443 33.2195 3.5424 38.6431 3.5424 44.6477C3.5424 46.9399 4.02665 49.1674 4.96286 51.2012C2.21879 54.0745 0.669189 57.9162 0.669189 61.9839C0.669189 66.0515 2.21879 69.8933 4.99515 72.7987C4.05893 74.8326 3.57468 77.0601 3.57468 79.3522C3.57468 85.3569 6.99671 90.7482 12.2589 93.3955C12.2589 93.5569 12.2589 93.686 12.2589 93.8474C12.2589 101.595 17.9085 108.052 25.3013 109.311C25.8178 117.511 32.6296 124 40.9587 124C45.4461 124 49.6106 122.128 52.5484 118.899C55.4862 122.128 59.6507 124 64.1381 124C72.4672 124 79.2789 117.479 79.7955 109.311C87.1883 108.052 92.8379 101.595 92.8379 93.8474C92.8379 93.686 92.8379 93.5569 92.8379 93.3955C98.1001 90.7805 101.522 85.3569 101.522 79.3522C101.522 77.0601 101.038 74.8326 100.102 72.7987C102.781 69.8933 104.331 66.0515 104.331 61.9839ZM95.0331 70.1192C93.9355 70.9586 93.6773 72.5082 94.4521 73.6704C95.5497 75.3491 96.1308 77.3184 96.1308 79.32C96.1308 83.7751 93.2899 87.7136 89.093 89.1341C87.8663 89.5538 87.0915 90.8128 87.3175 92.1041C87.4143 92.6852 87.4466 93.2341 87.4466 93.8151C87.4466 98.8836 83.7663 103.113 78.9561 103.984C76.3734 96.6884 70.3365 93.0081 70.0459 92.8467C68.7869 92.1041 67.1727 92.4915 66.3979 93.7506C65.6231 95.0096 66.0428 96.6238 67.3018 97.3986C67.3664 97.4309 72.8546 100.853 74.3719 107.277C74.4042 107.632 74.4364 107.955 74.4364 108.31C74.4364 114.024 69.7876 118.673 64.0735 118.673C60.1672 118.673 56.6484 116.51 54.8728 113.056C54.4208 112.184 53.5169 111.603 52.5161 111.603C51.5153 111.603 50.6114 112.152 50.1594 113.056C48.3838 116.51 44.8327 118.673 40.9587 118.673C35.2446 118.673 30.5958 114.024 30.5958 108.31C30.5958 107.988 30.6281 107.632 30.6603 107.277C32.1454 101.111 36.9233 98.8836 37.117 98.8191C38.4729 98.238 39.0863 96.6561 38.5052 95.3325C37.9241 93.9766 36.3422 93.3632 34.9863 93.9443C34.6957 94.0734 28.6911 96.7529 26.0761 104.017C21.2659 103.145 17.5856 98.9159 17.5856 93.8474C17.5856 93.2986 17.6179 92.7175 17.7148 92.1364C17.9407 90.8451 17.1659 89.586 15.9392 89.1664C11.7423 87.7459 8.90142 83.8073 8.90142 79.3522C8.90142 77.3507 9.48252 75.3814 10.5801 73.7027C11.3227 72.5405 11.0967 70.9909 9.99905 70.1515C7.48096 68.1822 6.02821 65.2122 6.02821 62.0161C6.02821 59.5626 6.89986 57.2382 8.44945 55.3658C12.3234 58.3358 16.4557 59.1429 19.7486 59.1429C23.332 59.1429 25.947 58.2067 26.173 58.1099C27.5611 57.5933 28.2714 56.0437 27.7548 54.6878C27.2383 53.2997 25.721 52.6217 24.3328 53.106C24.01 53.2351 16.488 55.85 10.451 50.0713C9.45024 48.4249 8.90142 46.5847 8.90142 44.6477C8.90142 40.1927 11.7423 36.2541 15.9392 34.8336C17.1659 34.414 17.9407 33.1549 17.7148 31.8636C17.6179 31.2825 17.5856 30.7337 17.5856 30.1526C17.5856 24.4384 22.2021 19.8219 27.9163 19.7896C27.9485 19.7896 27.9808 19.7896 28.0131 19.7896C33.7595 19.7896 36.2776 24.2447 36.3745 24.4061C36.8587 25.3101 37.7627 25.8266 38.7312 25.8266C39.1508 25.8266 39.5705 25.7298 39.9902 25.5038C41.2815 24.8258 41.7981 23.2117 41.0878 21.8881C40.9587 21.6298 37.7949 15.8511 30.6281 14.6566C31.1123 9.39443 35.5674 5.29445 40.9264 5.29445C44.8327 5.29445 48.3516 7.45743 50.1271 10.9117C50.5791 11.7834 51.483 12.3645 52.4838 12.3645C53.4846 12.3645 54.3885 11.8157 54.8405 10.9117C56.6161 7.45743 60.1672 5.29445 64.0412 5.29445C69.4325 5.29445 73.8553 9.42671 74.3396 14.6889C67.1404 15.9479 63.9444 22.1786 63.783 22.4691C63.1373 23.7928 63.6538 25.4069 64.9774 26.0526C65.3648 26.2463 65.7845 26.3431 66.1719 26.3431C67.1404 26.3431 68.0766 25.7943 68.5609 24.8904C68.6577 24.6967 71.2727 19.8219 76.9868 19.8219C77.0191 19.8219 77.0514 19.8219 77.1159 19.8219C82.7978 19.8542 87.4466 24.4707 87.4466 30.1848C87.4466 30.7337 87.4143 31.3148 87.3175 31.8959C87.0915 33.1872 87.8663 34.4462 89.093 34.8659C93.2899 36.2864 96.1308 40.2249 96.1308 44.68C96.1308 46.6816 95.5497 48.6509 94.4521 50.3296C94.3229 50.5233 94.2261 50.717 94.1615 50.943C91.9017 53.8485 88.9962 55.2367 85.5096 55.043C82.475 54.8815 80.0537 53.5902 80.0537 53.5579C78.7624 52.8477 77.1482 53.2997 76.438 54.591C75.7278 55.8823 76.1797 57.4965 77.4711 58.2067C77.6002 58.2713 80.7962 60.0469 84.9931 60.3374C85.3805 60.3697 85.7679 60.3697 86.1875 60.3697C89.4159 60.3697 93.4513 59.4335 96.9701 55.8178C98.2938 57.5933 99.0363 59.7563 99.0363 62.0161C99.004 65.1799 97.5512 68.15 95.0331 70.1192Z" fill="url(#paint1_linear_218_105)"/>
<defs>
<linearGradient id="paint0_linear_218_105" x1="0.588563" y1="62.0182" x2="104.31" y2="62.0182" gradientUnits="userSpaceOnUse">
<stop offset="2.49422e-07" stop-color="#FD675C"/>
<stop offset="1" stop-color="#FA3078"/>
</linearGradient>
<linearGradient id="paint1_linear_218_105" x1="0.669189" y1="61.9839" x2="104.329" y2="61.9839" gradientUnits="userSpaceOnUse">
<stop offset="2.49422e-07" stop-color="#FD675C"/>
<stop offset="1" stop-color="#FA3078"/>
</linearGradient>
</defs>
</svg>
