<svg width="316" height="118" viewBox="0 0 316 118" fill="none" xmlns="http://www.w3.org/2000/svg">
<g clip-path="url(#clip0_701_135)">
<path d="M45.8469 118L43.9055 116.956C29.1957 109.13 17.846 99.7372 10.1551 89.0777C3.43485 79.6854 -0.0746007 69.6968 6.84955e-05 60.3045C0.0747377 49.2723 5.22691 40.1036 13.7392 35.7802C22.6995 31.2331 34.1239 32.724 45.2496 39.8054C56.0766 32.724 67.277 31.1586 76.3866 35.5565C84.8243 39.6564 90.1258 48.3032 90.5738 58.8882C90.9471 68.1314 87.7364 78.0455 81.1655 87.5123C73.7732 98.3209 62.4982 108.16 47.7137 116.882L45.8469 118ZM25.0142 40.9981C22.2515 40.9981 19.6381 41.5945 17.3233 42.7871C11.4991 45.7688 7.915 52.3285 7.84033 60.379C7.76566 66.9387 10.3791 89.4504 45.6976 109.055C69.6664 94.4447 83.4802 75.9583 82.8082 59.2609C82.5095 51.5831 78.9254 45.5452 73.0265 42.7126C65.933 39.2836 56.674 41.1472 47.639 47.7814L45.3243 49.4214L43.0095 47.7814C36.7373 43.3089 30.4651 40.9981 25.0142 40.9981Z" fill="url(#paint0_linear_701_135)"/>
<path fill-rule="evenodd" clip-rule="evenodd" d="M94.6059 69.9949L101.028 61.7208L103.566 60.6772L107.524 55.6083L78.7014 43.0107L48.8337 4.69615L52.4925 0L96.9954 19.53L126.863 57.8446L123.204 62.5407L114.991 58.8882L109.838 65.5224L109.39 68.2805L102.969 76.5546L94.6059 69.9949Z" fill="white"/>
<path fill-rule="evenodd" clip-rule="evenodd" d="M70.7864 53.1484L53.3138 30.3386L65.1862 15.132L81.1654 39.8054L109.092 49.1977L97.2193 64.4043L70.7864 53.1484Z" fill="white"/>
<path fill-rule="evenodd" clip-rule="evenodd" d="M95.054 21.9899L124.474 59.7081L116.409 56.2047L116.335 56.0556L108.494 46.8124L113.273 53.9684L114.02 55.1611L106.852 64.2552L106.478 67.0132L102.446 72.2312L100.654 70.8149L98.9368 69.4731L102.969 64.2552L105.508 63.2116L112.377 54.4156L80.6428 40.4763L51.2231 2.83258L95.054 21.9899Z" fill="url(#paint1_linear_701_135)"/>
<path fill-rule="evenodd" clip-rule="evenodd" d="M64.9623 20.4245L57.1967 30.3386L72.7278 50.614L96.2486 60.6772L104.014 50.7631L79.1494 42.4144L64.9623 20.4245Z" fill="url(#paint2_linear_701_135)"/>
<path d="M179.878 34.2148C181.745 35.1838 183.238 36.7492 184.358 38.7618C185.478 40.7745 186.001 43.2344 186.001 46.067V64.4043H180.849V46.8124C180.849 43.6816 180.102 41.3708 178.534 39.6563C176.966 38.0164 174.95 37.1965 172.337 37.1965C169.648 37.1965 167.483 38.091 165.915 39.8054C164.347 41.5199 163.526 43.9798 163.526 47.2596V64.4043H158.373V46.8124C158.373 43.6816 157.627 41.3708 156.059 39.6563C154.491 38.0164 152.475 37.1965 149.861 37.1965C147.173 37.1965 145.008 38.091 143.44 39.8054C141.871 41.5199 141.05 43.9798 141.05 47.2596V64.4043H135.898V33.3203H141.05V37.7928C142.095 36.1529 143.44 34.8857 145.157 34.0657C146.874 33.1712 148.816 32.7239 150.906 32.7239C153.52 32.7239 155.835 33.3203 157.851 34.5129C159.867 35.7056 161.36 37.4201 162.331 39.6563C163.227 37.4946 164.646 35.7802 166.662 34.5129C168.678 33.3203 170.918 32.7239 173.382 32.7239C175.771 32.7239 177.937 33.2457 179.878 34.2148Z" fill="url(#paint3_linear_701_135)"/>
<path d="M194.439 40.4017C195.708 38.0164 197.5 36.1529 199.74 34.8111C201.98 33.4693 204.519 32.7985 207.282 32.7985C210.044 32.7985 212.359 33.3948 214.375 34.5875C216.391 35.7801 217.885 37.271 218.855 38.9854V33.3203H224.082V64.4043H218.855V58.59C217.81 60.379 216.317 61.9444 214.301 63.1371C212.284 64.3297 209.895 64.9261 207.207 64.9261C204.444 64.9261 201.905 64.2552 199.665 62.9134C197.425 61.5717 195.633 59.6336 194.364 57.1737C193.094 54.7138 192.422 51.8812 192.422 48.7505C192.497 45.5451 193.169 42.7871 194.439 40.4017ZM217.511 42.7125C216.541 40.9981 215.271 39.6563 213.703 38.6873C212.06 37.7928 210.343 37.271 208.402 37.271C206.46 37.271 204.668 37.7182 203.1 38.6127C201.532 39.5072 200.263 40.849 199.292 42.5635C198.321 44.2779 197.873 46.3651 197.873 48.6759C197.873 51.0613 198.321 53.1484 199.292 54.8629C200.263 56.6519 201.532 57.9937 203.1 58.8882C204.668 59.7827 206.46 60.3045 208.402 60.3045C210.343 60.3045 212.135 59.8572 213.703 58.8882C215.346 57.9937 216.615 56.6519 217.511 54.8629C218.482 53.0739 218.93 51.0613 218.93 48.6759C218.93 46.4397 218.407 44.427 217.511 42.7125Z" fill="url(#paint4_linear_701_135)"/>
<path d="M239.24 37.5692V55.9065C239.24 57.3973 239.539 58.5155 240.211 59.1118C240.883 59.7081 242.003 60.0808 243.571 60.0808H247.379V64.4788H242.675C239.763 64.4788 237.597 63.8079 236.179 62.4662C234.76 61.1244 234.013 58.9627 234.013 55.9065V37.5692H229.981V33.3203H234.013V25.4933H239.165V33.3203H247.304V37.5692H239.24Z" fill="url(#paint5_linear_701_135)"/>
<path d="M253.577 40.4017C254.846 38.0164 256.638 36.1529 258.953 34.8111C261.268 33.4693 263.881 32.7985 266.793 32.7985C270.601 32.7985 273.812 33.693 276.276 35.5565C278.74 37.4201 280.383 39.9545 281.204 43.3089H275.604C275.081 41.4453 274.036 39.9545 272.468 38.8364C270.9 37.7182 269.033 37.1964 266.718 37.1964C263.732 37.1964 261.342 38.24 259.55 40.2527C257.758 42.2653 256.787 45.1724 256.787 48.825C256.787 52.5521 257.683 55.4592 259.55 57.5464C261.342 59.559 263.732 60.6026 266.718 60.6026C268.958 60.6026 270.9 60.0808 272.393 59.0372C273.887 57.9937 274.932 56.4283 275.529 54.4902H281.13C280.308 57.6955 278.591 60.2299 276.127 62.0935C273.588 64.0316 270.527 64.9261 266.718 64.9261C263.732 64.9261 261.118 64.2552 258.878 62.9134C256.563 61.5717 254.771 59.7081 253.502 57.3228C252.233 54.9374 251.561 52.0303 251.561 48.825C251.635 45.6197 252.307 42.7871 253.577 40.4017Z" fill="url(#paint6_linear_701_135)"/>
<path d="M309.952 34.2148C311.819 35.1838 313.312 36.7492 314.432 38.7618C315.477 40.7745 316.075 43.2344 316.075 46.0669V64.4043H310.923V46.8124C310.923 43.6816 310.176 41.3708 308.608 39.6563C307.04 38.0164 304.949 37.1965 302.261 37.1965C299.498 37.1965 297.333 38.0164 295.765 39.7309C294.122 41.4453 293.375 43.9052 293.375 47.1851V64.4043H288.223V22.4371H293.375V37.7928C294.421 36.2274 295.839 34.9602 297.631 34.0657C299.424 33.1712 301.44 32.7239 303.68 32.7239C305.92 32.7239 308.085 33.2457 309.952 34.2148Z" fill="url(#paint7_linear_701_135)"/>
<path d="M135.898 81.6235C137.167 79.2381 138.959 77.3746 141.274 76.0328C143.589 74.6911 146.202 74.0202 149.114 74.0202C152.922 74.0202 156.133 74.9147 158.597 76.7783C161.061 78.6418 162.704 81.1762 163.526 84.5306H157.925C157.403 82.6671 156.357 81.1762 154.789 80.0581C153.221 78.94 151.354 78.4182 149.04 78.4182C146.053 78.4182 143.663 79.4618 141.871 81.4744C140.079 83.487 139.109 86.3942 139.109 90.0467C139.109 93.7738 140.005 96.681 141.871 98.7681C143.663 100.781 146.053 101.824 149.04 101.824C151.28 101.824 153.221 101.303 154.715 100.259C156.208 99.2154 157.253 97.65 157.851 95.7119H163.451C162.629 98.9172 160.912 101.452 158.448 103.315C155.909 105.253 152.848 106.148 149.04 106.148C146.053 106.148 143.439 105.477 141.199 104.135C138.885 102.793 137.093 100.93 135.823 98.5445C134.554 96.1592 133.882 93.252 133.882 90.0467C133.957 86.8414 134.629 84.0088 135.898 81.6235Z" fill="#200418"/>
<path d="M170.395 81.6235C171.664 79.2381 173.457 77.3746 175.697 76.0328C177.937 74.6911 180.475 74.0202 183.238 74.0202C186.001 74.0202 188.316 74.6165 190.332 75.8092C192.348 77.0019 193.841 78.4927 194.812 80.2072V74.542H200.039V105.626H194.812V99.8117C193.767 101.601 192.273 103.166 190.257 104.359C188.241 105.551 185.852 106.148 183.164 106.148C180.401 106.148 177.862 105.477 175.622 104.135C173.382 102.793 171.59 100.855 170.32 98.3954C169.051 95.9355 168.379 93.103 168.379 89.9722C168.454 86.7669 169.126 84.0088 170.395 81.6235ZM193.468 83.8597C192.497 82.1453 191.228 80.8035 189.66 79.8345C188.017 78.94 186.3 78.4182 184.358 78.4182C182.417 78.4182 180.625 78.8654 179.057 79.7599C177.489 80.6544 176.219 81.9962 175.249 83.7107C174.278 85.4251 173.83 87.5123 173.83 89.8231C173.83 92.2084 174.278 94.2956 175.249 96.0101C176.219 97.7991 177.489 99.1409 179.057 100.035C180.625 100.93 182.417 101.452 184.358 101.452C186.3 101.452 188.092 101.004 189.66 100.035C191.302 99.1409 192.572 97.7991 193.468 96.0101C194.439 94.2211 194.887 92.2084 194.887 89.8231C194.887 87.6614 194.364 85.6488 193.468 83.8597Z" fill="#200418"/>
<path d="M217.885 75.4365C219.602 74.4675 221.618 73.9457 224.082 73.9457V79.3127H222.738C216.914 79.3127 214.002 82.4435 214.002 88.705V105.626H208.85V74.542H214.002V79.6109C214.898 77.8219 216.242 76.4056 217.885 75.4365Z" fill="#200418"/>
<path d="M258.281 91.9848H233.341C233.565 95.041 234.611 97.4264 236.477 99.1409C238.419 100.855 240.733 101.75 243.422 101.75C245.662 101.75 247.528 101.228 249.022 100.184C250.515 99.1409 251.56 97.7246 252.158 96.0101H257.758C256.937 98.9918 255.219 101.452 252.755 103.315C250.216 105.179 247.155 106.148 243.422 106.148C240.435 106.148 237.821 105.477 235.507 104.135C233.192 102.793 231.325 100.93 230.056 98.47C228.712 96.0101 228.04 93.1775 228.04 89.9722C228.04 86.7669 228.712 83.9343 229.981 81.5489C231.25 79.1636 233.117 77.3 235.432 75.9583C237.747 74.6165 240.435 74.0202 243.496 74.0202C246.483 74.0202 249.096 74.6911 251.336 75.9583C253.577 77.2255 255.369 79.0145 256.563 81.2508C257.758 83.487 258.43 86.0215 258.43 88.8541C258.505 89.8976 258.43 90.9412 258.281 91.9848ZM251.859 82.7416C250.963 81.3253 249.768 80.2072 248.275 79.5363C246.782 78.7909 245.139 78.4182 243.272 78.4182C240.659 78.4182 238.419 79.2381 236.627 80.9526C234.76 82.5925 233.715 84.9033 233.491 87.885H253.129C253.129 85.8724 252.681 84.1579 251.859 82.7416Z" fill="#200418"/>
<path d="M293.599 91.9848H268.66C268.884 95.041 269.929 97.4264 271.796 99.1409C273.737 100.855 276.052 101.75 278.74 101.75C280.98 101.75 282.847 101.228 284.34 100.184C285.834 99.1409 286.879 97.7246 287.476 96.0101H293.076C292.255 98.9918 290.538 101.452 288.074 103.315C285.535 105.179 282.473 106.148 278.74 106.148C275.753 106.148 273.14 105.477 270.825 104.135C268.51 102.793 266.644 100.93 265.374 98.47C264.03 96.0101 263.358 93.1775 263.358 89.9722C263.358 86.7669 264.03 83.9343 265.3 81.5489C266.569 79.1636 268.436 77.3 270.75 75.9583C273.065 74.6165 275.753 74.0202 278.815 74.0202C281.801 74.0202 284.415 74.6911 286.655 75.9583C288.895 77.2255 290.687 79.0145 291.882 81.2508C293.076 83.487 293.748 86.0215 293.748 88.8541C293.748 89.8976 293.674 90.9412 293.599 91.9848ZM287.103 82.7416C286.207 81.3253 285.012 80.2072 283.519 79.5363C282.025 78.7909 280.383 78.4182 278.516 78.4182C275.903 78.4182 273.662 79.2381 271.87 80.9526C270.004 82.5925 268.958 84.9033 268.734 87.885H288.447C288.372 85.8724 287.999 84.1579 287.103 82.7416Z" fill="#200418"/>
<path d="M309.653 75.4365C311.371 74.4675 313.387 73.9457 315.851 73.9457V79.3127H314.507C308.682 79.3127 305.77 82.4435 305.77 88.705V105.626H300.618V74.542H305.77V79.6109C306.666 77.8219 307.936 76.4056 309.653 75.4365Z" fill="#200418"/>
<g clip-path="url(#clip1_701_135)">
<mask id="mask0_701_135" style="mask-type:luminance" maskUnits="userSpaceOnUse" x="0" y="0" width="316" height="118">
<path d="M316 0H0V118H316V0Z" fill="white"/>
</mask>
<g mask="url(#mask0_701_135)">
<path d="M45.8469 118L43.9055 116.956C29.1957 109.13 17.846 99.7372 10.1551 89.0777C3.43485 79.6854 -0.0746007 69.6968 6.84963e-05 60.3045C0.0747377 49.2723 5.22691 40.1036 13.7392 35.7802C22.6995 31.2331 34.1239 32.724 45.2496 39.8054C56.0766 32.724 67.277 31.1586 76.3866 35.5565C84.8243 39.6564 90.1258 48.3032 90.5738 58.8882C90.9471 68.1314 87.7364 78.0455 81.1655 87.5123C73.7732 98.3209 62.4982 108.16 47.7137 116.882L45.8469 118ZM25.0142 40.9981C22.2515 40.9981 19.6381 41.5945 17.3233 42.7871C11.4991 45.7688 7.915 52.3285 7.84033 60.379C7.76566 66.9387 10.3791 89.4504 45.6976 109.055C69.6664 94.4447 83.4802 75.9583 82.8082 59.2609C82.5095 51.5831 78.9254 45.5452 73.0265 42.7126C65.933 39.2836 56.674 41.1472 47.639 47.7814L45.3243 49.4214L43.0095 47.7814C36.7373 43.3089 30.4651 40.9981 25.0142 40.9981Z" fill="url(#paint8_linear_701_135)"/>
<path fill-rule="evenodd" clip-rule="evenodd" d="M94.6059 69.9949L101.028 61.7208L103.566 60.6772L107.524 55.6083L78.7014 43.0107L48.8337 4.69615L52.4925 0L96.9954 19.53L126.863 57.8446L123.204 62.5407L114.991 58.8882L109.838 65.5224L109.39 68.2805L102.969 76.5546L94.6059 69.9949Z" fill="white"/>
<path fill-rule="evenodd" clip-rule="evenodd" d="M70.7864 53.1484L53.3138 30.3386L65.1862 15.132L81.1654 39.8054L109.092 49.1977L97.2193 64.4043L70.7864 53.1484Z" fill="white"/>
<path fill-rule="evenodd" clip-rule="evenodd" d="M95.054 21.9899L124.474 59.7081L116.409 56.2047L116.335 56.0556L108.494 46.8124L113.273 53.9684L114.02 55.1611L106.852 64.2552L106.478 67.0132L102.446 72.2312L100.654 70.8149L98.9368 69.4731L102.969 64.2552L105.508 63.2116L112.377 54.4156L80.6428 40.4763L51.2231 2.83258L95.054 21.9899Z" fill="url(#paint9_linear_701_135)"/>
<path fill-rule="evenodd" clip-rule="evenodd" d="M64.9623 20.4245L57.1967 30.3386L72.7278 50.614L96.2486 60.6772L104.014 50.7631L79.1494 42.4144L64.9623 20.4245Z" fill="url(#paint10_linear_701_135)"/>
<path d="M179.878 34.2148C181.745 35.1838 183.238 36.7492 184.358 38.7618C185.478 40.7745 186.001 43.2344 186.001 46.067V64.4043H180.849V46.8124C180.849 43.6816 180.102 41.3708 178.534 39.6563C176.966 38.0164 174.95 37.1965 172.337 37.1965C169.648 37.1965 167.483 38.091 165.915 39.8054C164.347 41.5199 163.526 43.9798 163.526 47.2596V64.4043H158.373V46.8124C158.373 43.6816 157.627 41.3708 156.059 39.6563C154.491 38.0164 152.475 37.1965 149.861 37.1965C147.173 37.1965 145.008 38.091 143.44 39.8054C141.871 41.5199 141.05 43.9798 141.05 47.2596V64.4043H135.898V33.3203H141.05V37.7928C142.095 36.1529 143.44 34.8857 145.157 34.0657C146.874 33.1712 148.816 32.7239 150.906 32.7239C153.52 32.7239 155.835 33.3203 157.851 34.5129C159.867 35.7056 161.36 37.4201 162.331 39.6563C163.227 37.4946 164.646 35.7802 166.662 34.5129C168.678 33.3203 170.918 32.7239 173.382 32.7239C175.771 32.7239 177.937 33.2457 179.878 34.2148Z" fill="url(#paint11_linear_701_135)"/>
<path d="M194.439 40.4017C195.708 38.0164 197.5 36.1529 199.74 34.8111C201.98 33.4693 204.519 32.7985 207.282 32.7985C210.044 32.7985 212.359 33.3948 214.375 34.5875C216.391 35.7801 217.885 37.271 218.855 38.9854V33.3203H224.082V64.4043H218.855V58.59C217.81 60.379 216.317 61.9444 214.301 63.1371C212.284 64.3297 209.895 64.9261 207.207 64.9261C204.444 64.9261 201.905 64.2552 199.665 62.9134C197.425 61.5717 195.633 59.6336 194.364 57.1737C193.094 54.7138 192.422 51.8812 192.422 48.7505C192.497 45.5451 193.169 42.7871 194.439 40.4017ZM217.511 42.7125C216.541 40.9981 215.271 39.6563 213.703 38.6873C212.06 37.7928 210.343 37.271 208.402 37.271C206.46 37.271 204.668 37.7182 203.1 38.6127C201.532 39.5072 200.263 40.849 199.292 42.5635C198.321 44.2779 197.873 46.3651 197.873 48.6759C197.873 51.0613 198.321 53.1484 199.292 54.8629C200.263 56.6519 201.532 57.9937 203.1 58.8882C204.668 59.7827 206.46 60.3045 208.402 60.3045C210.343 60.3045 212.135 59.8572 213.703 58.8882C215.346 57.9937 216.615 56.6519 217.511 54.8629C218.482 53.0739 218.93 51.0613 218.93 48.6759C218.93 46.4397 218.407 44.427 217.511 42.7125Z" fill="url(#paint12_linear_701_135)"/>
<path d="M239.24 37.5692V55.9065C239.24 57.3973 239.539 58.5155 240.211 59.1118C240.883 59.7081 242.003 60.0808 243.571 60.0808H247.379V64.4788H242.675C239.763 64.4788 237.597 63.8079 236.179 62.4662C234.76 61.1244 234.013 58.9627 234.013 55.9065V37.5692H229.981V33.3203H234.013V25.4933H239.165V33.3203H247.304V37.5692H239.24Z" fill="url(#paint13_linear_701_135)"/>
<path d="M253.577 40.4017C254.846 38.0164 256.638 36.1529 258.953 34.8111C261.268 33.4693 263.881 32.7985 266.793 32.7985C270.601 32.7985 273.812 33.693 276.276 35.5565C278.74 37.4201 280.383 39.9545 281.204 43.3089H275.604C275.081 41.4453 274.036 39.9545 272.468 38.8364C270.9 37.7182 269.033 37.1964 266.718 37.1964C263.732 37.1964 261.342 38.24 259.55 40.2527C257.758 42.2653 256.787 45.1724 256.787 48.825C256.787 52.5521 257.683 55.4592 259.55 57.5464C261.342 59.559 263.732 60.6026 266.718 60.6026C268.958 60.6026 270.9 60.0808 272.393 59.0372C273.887 57.9937 274.932 56.4283 275.529 54.4902H281.13C280.308 57.6955 278.591 60.2299 276.127 62.0935C273.588 64.0316 270.527 64.9261 266.718 64.9261C263.732 64.9261 261.118 64.2552 258.878 62.9134C256.563 61.5717 254.771 59.7081 253.502 57.3228C252.233 54.9374 251.561 52.0303 251.561 48.825C251.635 45.6197 252.307 42.7871 253.577 40.4017Z" fill="url(#paint14_linear_701_135)"/>
<path d="M309.952 34.2148C311.819 35.1838 313.312 36.7492 314.432 38.7618C315.477 40.7745 316.075 43.2344 316.075 46.0669V64.4043H310.923V46.8124C310.923 43.6816 310.176 41.3708 308.608 39.6563C307.04 38.0164 304.949 37.1965 302.261 37.1965C299.498 37.1965 297.333 38.0164 295.765 39.7309C294.122 41.4453 293.375 43.9052 293.375 47.1851V64.4043H288.223V22.4371H293.375V37.7928C294.421 36.2274 295.839 34.9602 297.631 34.0657C299.424 33.1712 301.44 32.7239 303.68 32.7239C305.92 32.7239 308.085 33.2457 309.952 34.2148Z" fill="url(#paint15_linear_701_135)"/>
<path d="M135.898 81.6235C137.167 79.2381 138.959 77.3746 141.274 76.0328C143.589 74.6911 146.202 74.0202 149.114 74.0202C152.922 74.0202 156.133 74.9147 158.597 76.7783C161.061 78.6418 162.704 81.1762 163.526 84.5306H157.925C157.403 82.6671 156.357 81.1762 154.789 80.0581C153.221 78.94 151.354 78.4182 149.04 78.4182C146.053 78.4182 143.663 79.4618 141.871 81.4744C140.079 83.487 139.109 86.3942 139.109 90.0467C139.109 93.7738 140.005 96.681 141.871 98.7681C143.663 100.781 146.053 101.824 149.04 101.824C151.28 101.824 153.221 101.303 154.715 100.259C156.208 99.2154 157.253 97.65 157.851 95.7119H163.451C162.629 98.9172 160.912 101.452 158.448 103.315C155.909 105.253 152.848 106.148 149.04 106.148C146.053 106.148 143.439 105.477 141.199 104.135C138.885 102.793 137.093 100.93 135.823 98.5445C134.554 96.1592 133.882 93.252 133.882 90.0467C133.957 86.8414 134.629 84.0088 135.898 81.6235Z" fill="#200418"/>
<path d="M170.395 81.6235C171.664 79.2381 173.457 77.3746 175.697 76.0328C177.937 74.6911 180.475 74.0202 183.238 74.0202C186.001 74.0202 188.316 74.6165 190.332 75.8092C192.348 77.0019 193.841 78.4927 194.812 80.2072V74.542H200.039V105.626H194.812V99.8117C193.767 101.601 192.273 103.166 190.257 104.359C188.241 105.551 185.852 106.148 183.164 106.148C180.401 106.148 177.862 105.477 175.622 104.135C173.382 102.793 171.59 100.855 170.32 98.3954C169.051 95.9355 168.379 93.103 168.379 89.9722C168.454 86.7669 169.126 84.0088 170.395 81.6235ZM193.468 83.8597C192.497 82.1453 191.228 80.8035 189.66 79.8345C188.017 78.94 186.3 78.4182 184.358 78.4182C182.417 78.4182 180.625 78.8654 179.057 79.7599C177.489 80.6544 176.219 81.9962 175.249 83.7107C174.278 85.4251 173.83 87.5123 173.83 89.8231C173.83 92.2084 174.278 94.2956 175.249 96.0101C176.219 97.7991 177.489 99.1409 179.057 100.035C180.625 100.93 182.417 101.452 184.358 101.452C186.3 101.452 188.092 101.004 189.66 100.035C191.302 99.1409 192.572 97.7991 193.468 96.0101C194.439 94.2211 194.887 92.2084 194.887 89.8231C194.887 87.6614 194.364 85.6488 193.468 83.8597Z" fill="#200418"/>
<path d="M217.885 75.4365C219.602 74.4675 221.618 73.9457 224.082 73.9457V79.3127H222.738C216.914 79.3127 214.002 82.4435 214.002 88.705V105.626H208.85V74.542H214.002V79.6109C214.898 77.8219 216.242 76.4056 217.885 75.4365Z" fill="#200418"/>
<path d="M258.281 91.9848H233.341C233.565 95.041 234.611 97.4264 236.477 99.1409C238.419 100.855 240.733 101.75 243.422 101.75C245.662 101.75 247.528 101.228 249.022 100.184C250.515 99.1409 251.56 97.7246 252.158 96.0101H257.758C256.937 98.9918 255.219 101.452 252.755 103.315C250.216 105.179 247.155 106.148 243.422 106.148C240.435 106.148 237.821 105.477 235.507 104.135C233.192 102.793 231.325 100.93 230.056 98.47C228.712 96.0101 228.04 93.1775 228.04 89.9722C228.04 86.7669 228.712 83.9343 229.981 81.5489C231.25 79.1636 233.117 77.3 235.432 75.9583C237.747 74.6165 240.435 74.0202 243.496 74.0202C246.483 74.0202 249.096 74.6911 251.336 75.9583C253.577 77.2255 255.369 79.0145 256.563 81.2508C257.758 83.487 258.43 86.0215 258.43 88.8541C258.505 89.8976 258.43 90.9412 258.281 91.9848ZM251.859 82.7416C250.963 81.3253 249.768 80.2072 248.275 79.5363C246.782 78.7909 245.139 78.4182 243.272 78.4182C240.659 78.4182 238.419 79.2381 236.627 80.9526C234.76 82.5925 233.715 84.9033 233.491 87.885H253.129C253.129 85.8724 252.681 84.1579 251.859 82.7416Z" fill="#200418"/>
<path d="M293.599 91.9848H268.66C268.884 95.041 269.929 97.4264 271.796 99.1409C273.737 100.855 276.052 101.75 278.74 101.75C280.98 101.75 282.847 101.228 284.34 100.184C285.834 99.1409 286.879 97.7246 287.476 96.0101H293.076C292.255 98.9918 290.538 101.452 288.074 103.315C285.535 105.179 282.473 106.148 278.74 106.148C275.753 106.148 273.14 105.477 270.825 104.135C268.51 102.793 266.644 100.93 265.374 98.47C264.03 96.0101 263.358 93.1775 263.358 89.9722C263.358 86.7669 264.03 83.9343 265.3 81.5489C266.569 79.1636 268.436 77.3 270.75 75.9583C273.065 74.6165 275.753 74.0202 278.815 74.0202C281.801 74.0202 284.415 74.6911 286.655 75.9583C288.895 77.2255 290.687 79.0145 291.882 81.2508C293.076 83.487 293.748 86.0215 293.748 88.8541C293.748 89.8976 293.674 90.9412 293.599 91.9848ZM287.103 82.7416C286.207 81.3253 285.012 80.2072 283.519 79.5363C282.025 78.7909 280.383 78.4182 278.516 78.4182C275.903 78.4182 273.662 79.2381 271.87 80.9526C270.004 82.5925 268.958 84.9033 268.734 87.885H288.447C288.372 85.8724 287.999 84.1579 287.103 82.7416Z" fill="#200418"/>
<path d="M309.653 75.4365C311.371 74.4675 313.387 73.9457 315.851 73.9457V79.3127H314.507C308.682 79.3127 305.77 82.4435 305.77 88.705V105.626H300.618V74.542H305.77V79.6109C306.666 77.8219 307.936 76.4056 309.653 75.4365Z" fill="#200418"/>
</g>
</g>
</g>
<defs>
<linearGradient id="paint0_linear_701_135" x1="14.4563" y1="94.738" x2="75.8896" y2="33.1999" gradientUnits="userSpaceOnUse">
<stop offset="2.49422e-07" stop-color="#FF675C"/>
<stop offset="1" stop-color="#FD3078"/>
</linearGradient>
<linearGradient id="paint1_linear_701_135" x1="74.2444" y1="44.8345" x2="96.0474" y2="22.9944" gradientUnits="userSpaceOnUse">
<stop offset="2.49422e-07" stop-color="#FF675C"/>
<stop offset="1" stop-color="#FD3078"/>
</linearGradient>
<linearGradient id="paint2_linear_701_135" x1="71.6349" y1="49.4942" x2="87.1662" y2="33.9364" gradientUnits="userSpaceOnUse">
<stop offset="2.49422e-07" stop-color="#FF675C"/>
<stop offset="1" stop-color="#FD3078"/>
</linearGradient>
<linearGradient id="paint3_linear_701_135" x1="135.887" y1="48.5819" x2="185.986" y2="48.5819" gradientUnits="userSpaceOnUse">
<stop offset="2.49422e-07" stop-color="#FF675C"/>
<stop offset="1" stop-color="#FD3078"/>
</linearGradient>
<linearGradient id="paint4_linear_701_135" x1="192.525" y1="48.8657" x2="224.142" y2="48.8657" gradientUnits="userSpaceOnUse">
<stop offset="2.49422e-07" stop-color="#FF675C"/>
<stop offset="1" stop-color="#FD3078"/>
</linearGradient>
<linearGradient id="paint5_linear_701_135" x1="229.999" y1="44.9487" x2="247.343" y2="44.9487" gradientUnits="userSpaceOnUse">
<stop offset="2.49422e-07" stop-color="#FF675C"/>
<stop offset="1" stop-color="#FD3078"/>
</linearGradient>
<linearGradient id="paint6_linear_701_135" x1="251.665" y1="48.8657" x2="281.235" y2="48.8657" gradientUnits="userSpaceOnUse">
<stop offset="2.49422e-07" stop-color="#FF675C"/>
<stop offset="1" stop-color="#FD3078"/>
</linearGradient>
<linearGradient id="paint7_linear_701_135" x1="288.115" y1="43.416" x2="316.037" y2="43.416" gradientUnits="userSpaceOnUse">
<stop offset="2.49422e-07" stop-color="#FF675C"/>
<stop offset="1" stop-color="#FD3078"/>
</linearGradient>
<linearGradient id="paint8_linear_701_135" x1="14.4563" y1="94.738" x2="75.8896" y2="33.1999" gradientUnits="userSpaceOnUse">
<stop offset="2.49422e-07" stop-color="#FF675C"/>
<stop offset="1" stop-color="#FD3078"/>
</linearGradient>
<linearGradient id="paint9_linear_701_135" x1="74.2444" y1="44.8345" x2="96.0474" y2="22.9944" gradientUnits="userSpaceOnUse">
<stop offset="2.49422e-07" stop-color="#FF675C"/>
<stop offset="1" stop-color="#FD3078"/>
</linearGradient>
<linearGradient id="paint10_linear_701_135" x1="71.6349" y1="49.4942" x2="87.1662" y2="33.9364" gradientUnits="userSpaceOnUse">
<stop offset="2.49422e-07" stop-color="#FF675C"/>
<stop offset="1" stop-color="#FD3078"/>
</linearGradient>
<linearGradient id="paint11_linear_701_135" x1="135.887" y1="48.5819" x2="185.986" y2="48.5819" gradientUnits="userSpaceOnUse">
<stop offset="2.49422e-07" stop-color="#FF675C"/>
<stop offset="1" stop-color="#FD3078"/>
</linearGradient>
<linearGradient id="paint12_linear_701_135" x1="192.525" y1="48.8657" x2="224.142" y2="48.8657" gradientUnits="userSpaceOnUse">
<stop offset="2.49422e-07" stop-color="#FF675C"/>
<stop offset="1" stop-color="#FD3078"/>
</linearGradient>
<linearGradient id="paint13_linear_701_135" x1="229.999" y1="44.9487" x2="247.343" y2="44.9487" gradientUnits="userSpaceOnUse">
<stop offset="2.49422e-07" stop-color="#FF675C"/>
<stop offset="1" stop-color="#FD3078"/>
</linearGradient>
<linearGradient id="paint14_linear_701_135" x1="251.665" y1="48.8657" x2="281.235" y2="48.8657" gradientUnits="userSpaceOnUse">
<stop offset="2.49422e-07" stop-color="#FF675C"/>
<stop offset="1" stop-color="#FD3078"/>
</linearGradient>
<linearGradient id="paint15_linear_701_135" x1="288.115" y1="43.416" x2="316.037" y2="43.416" gradientUnits="userSpaceOnUse">
<stop offset="2.49422e-07" stop-color="#FF675C"/>
<stop offset="1" stop-color="#FD3078"/>
</linearGradient>
<clipPath id="clip0_701_135">
<rect width="316" height="118" fill="white"/>
</clipPath>
<clipPath id="clip1_701_135">
<rect width="316" height="118" fill="white"/>
</clipPath>
</defs>
</svg>
