<svg width="125" height="124" viewBox="0 0 125 124" fill="none" xmlns="http://www.w3.org/2000/svg">
<path d="M54.8509 20.0854C51.0082 20.0208 51.6218 14.1438 55.3676 14.8219C58.4676 15.3708 57.9832 20.1823 54.8509 20.0854Z" fill="url(#paint0_linear_218_84)"/>
<path d="M107.067 20.0854C103.224 20.0208 103.805 14.1438 107.583 14.8219C110.651 15.3708 110.199 20.1823 107.067 20.0854Z" fill="url(#paint1_linear_218_84)"/>
<path d="M54.3665 93.8719C50.5238 93.8073 51.1051 87.8979 54.8832 88.6083C57.9832 89.125 57.4988 93.9365 54.3665 93.8719Z" fill="url(#paint2_linear_218_84)"/>
<path d="M17.8124 57.3177C13.9697 57.2531 14.5832 51.3437 18.329 52.0542C21.429 52.5708 20.9447 57.3823 17.8124 57.3177Z" fill="url(#paint3_linear_218_84)"/>
<path d="M114.429 57.2854H99.6718C98.1863 57.2854 97.0238 56.0906 97.0238 54.6375V32.1948C97.0238 30.7094 98.2186 29.5469 99.6718 29.5469C101.157 29.5469 102.32 30.7417 102.32 32.1948V51.925H111.749V30.225C111.749 28.7396 112.944 27.5771 114.397 27.5771C115.882 27.5771 117.045 28.7719 117.045 30.225V54.6052C117.109 56.0906 115.914 57.2854 114.429 57.2854Z" fill="url(#paint4_linear_218_84)"/>
<path d="M43.9363 83.4094C43.2582 83.4094 42.5801 83.151 42.0634 82.6344L26.402 66.9729C25.3686 65.9396 25.3686 64.2604 26.402 63.1948C27.4353 62.1615 29.1145 62.1615 30.1801 63.1948L45.8415 78.8563C46.8749 79.8896 46.8749 81.5687 45.8415 82.6344C45.2926 83.151 44.6145 83.4094 43.9363 83.4094Z" fill="url(#paint5_linear_218_84)"/>
<path d="M92.277 20.0854H69.6405C68.1551 20.0854 66.9926 18.8906 66.9926 17.4375C66.9926 15.9521 68.1874 14.7896 69.6405 14.7896H92.277C93.7624 14.7896 94.9249 15.9844 94.9249 17.4375C94.9572 18.9229 93.7624 20.0854 92.277 20.0854Z" fill="url(#paint6_linear_218_84)"/>
<path d="M21.7197 43.0448C21.0415 43.0448 20.3634 42.7865 19.8468 42.2698C18.8134 41.2365 18.7811 39.5573 19.8145 38.4917L38.7051 19.375C39.7384 18.3417 41.4176 18.3094 42.4832 19.3427C43.5165 20.376 43.5488 22.0552 42.5155 23.1208L23.6249 42.2375C23.0759 42.7865 22.3978 43.0448 21.7197 43.0448Z" fill="url(#paint7_linear_218_84)"/>
<path d="M33.5384 52.1187C32.8603 52.1187 32.1822 51.8604 31.6655 51.3438C30.6322 50.3104 30.5999 48.6312 31.6332 47.5656L49.1353 29.8052C50.1686 28.7719 51.8478 28.7396 52.9134 29.7729C53.9468 30.8062 53.979 32.4854 52.9457 33.551L35.4436 51.3115C34.8947 51.8604 34.2165 52.1187 33.5384 52.1187Z" fill="url(#paint8_linear_218_84)"/>
<path d="M107.067 34.875H54.8509C45.228 34.875 37.4134 27.0604 37.4134 17.4375C37.4134 7.81458 45.228 0 54.8509 0H107.067C116.689 0 124.504 7.81458 124.504 17.4375C124.504 27.0604 116.689 34.875 107.067 34.875ZM54.8509 5.32812C48.1665 5.32812 42.7415 10.7531 42.7415 17.4375C42.7415 24.1219 48.1665 29.5469 54.8509 29.5469H107.067C113.751 29.5469 119.176 24.1219 119.176 17.4375C119.176 10.7531 113.751 5.32812 107.067 5.32812H54.8509Z" fill="url(#paint9_linear_218_84)"/>
<path d="M118.756 57.2854H121.824C123.309 57.2854 124.472 56.0906 124.472 54.6375C124.472 53.1521 123.277 51.9896 121.824 51.9896H92.277C90.7915 51.9896 89.629 53.1844 89.629 54.6375C89.629 56.1229 90.8238 57.2854 92.277 57.2854H95.3447L89.8874 68.2C89.3707 69.2333 89.5645 70.4604 90.3717 71.2677L97.7665 78.6625C98.2832 79.1792 98.9613 79.4375 99.6395 79.4375C100.318 79.4375 100.996 79.1792 101.512 78.6625C102.546 77.6292 102.546 75.95 101.512 74.8844L95.4738 68.8458L101.254 57.2531H112.75L118.53 68.8458L112.556 74.8844C111.523 75.9177 111.523 77.5969 112.556 78.6625C113.073 79.1792 113.751 79.4375 114.429 79.4375C115.107 79.4375 115.785 79.1792 116.302 78.6625L123.697 71.2677C124.504 70.4604 124.698 69.2333 124.181 68.2L118.756 57.2854Z" fill="url(#paint10_linear_218_84)"/>
<path d="M99.4134 124C100.899 124 102.061 122.805 102.061 121.352C102.061 119.867 100.867 118.672 99.4134 118.672H87.304V91.5469C87.304 90.0615 86.1093 88.8989 84.6561 88.8989H71.6426C71.1582 85.25 69.5113 81.6979 66.702 78.8885L30.277 42.5281C23.4634 35.7146 12.4197 35.7146 5.60613 42.5281C-1.20741 49.3417 -1.20741 60.3854 5.60613 67.199L37.4134 98.9417V118.672H25.304C23.8186 118.672 22.6561 119.867 22.6561 121.352C22.6561 122.837 23.8509 124 25.304 124H99.4134ZM9.38425 46.3062C11.7415 43.949 14.8415 42.7542 17.9415 42.7542C21.0415 42.7542 24.1415 43.949 26.4988 46.3062L62.9238 82.6344C67.6384 87.349 67.6384 95.0344 62.9238 99.749C58.2093 104.464 50.5238 104.464 45.8092 99.749L42.0634 96.0354C41.9988 95.9708 41.9342 95.9062 41.8697 95.8417L9.38425 63.4208C4.63738 58.7062 4.63738 51.0208 9.38425 46.3062ZM42.7415 104.205C46.0353 107.144 50.2009 108.629 54.3665 108.629C58.8228 108.629 63.3113 106.918 66.702 103.527C69.3499 100.879 70.9322 97.6177 71.5457 94.1948H82.0082V118.672H42.7415V104.205Z" fill="url(#paint11_linear_218_84)"/>
<defs>
<linearGradient id="paint0_linear_218_84" x1="0.791377" y1="62.201" x2="124.683" y2="62.201" gradientUnits="userSpaceOnUse">
<stop offset="2.49422e-07" stop-color="#FD675C"/>
<stop offset="1" stop-color="#FA3078"/>
</linearGradient>
<linearGradient id="paint1_linear_218_84" x1="0.581609" y1="62.2055" x2="124.535" y2="62.2055" gradientUnits="userSpaceOnUse">
<stop offset="2.49422e-07" stop-color="#FD675C"/>
<stop offset="1" stop-color="#FA3078"/>
</linearGradient>
<linearGradient id="paint2_linear_218_84" x1="0.832788" y1="61.8591" x2="124.48" y2="61.8591" gradientUnits="userSpaceOnUse">
<stop offset="2.49422e-07" stop-color="#FD675C"/>
<stop offset="1" stop-color="#FA3078"/>
</linearGradient>
<linearGradient id="paint3_linear_218_84" x1="0.444972" y1="61.7117" x2="124.344" y2="61.7117" gradientUnits="userSpaceOnUse">
<stop offset="2.49422e-07" stop-color="#FD675C"/>
<stop offset="1" stop-color="#FA3078"/>
</linearGradient>
<linearGradient id="paint4_linear_218_84" x1="0.402577" y1="61.9663" x2="124.887" y2="61.9663" gradientUnits="userSpaceOnUse">
<stop offset="2.49422e-07" stop-color="#FD675C"/>
<stop offset="1" stop-color="#FA3078"/>
</linearGradient>
<linearGradient id="paint5_linear_218_84" x1="0.286112" y1="62.0624" x2="124.336" y2="62.0624" gradientUnits="userSpaceOnUse">
<stop offset="2.49422e-07" stop-color="#FD675C"/>
<stop offset="1" stop-color="#FA3078"/>
</linearGradient>
<linearGradient id="paint6_linear_218_84" x1="0.401642" y1="61.9698" x2="124.613" y2="61.9698" gradientUnits="userSpaceOnUse">
<stop offset="2.49422e-07" stop-color="#FD675C"/>
<stop offset="1" stop-color="#FA3078"/>
</linearGradient>
<linearGradient id="paint7_linear_218_84" x1="0.432788" y1="62.073" x2="124.403" y2="62.073" gradientUnits="userSpaceOnUse">
<stop offset="2.49422e-07" stop-color="#FD675C"/>
<stop offset="1" stop-color="#FA3078"/>
</linearGradient>
<linearGradient id="paint8_linear_218_84" x1="0.410704" y1="62.1149" x2="124.475" y2="62.1149" gradientUnits="userSpaceOnUse">
<stop offset="2.49422e-07" stop-color="#FD675C"/>
<stop offset="1" stop-color="#FA3078"/>
</linearGradient>
<linearGradient id="paint9_linear_218_84" x1="0.514915" y1="61.9954" x2="124.492" y2="61.9954" gradientUnits="userSpaceOnUse">
<stop offset="2.49422e-07" stop-color="#FD675C"/>
<stop offset="1" stop-color="#FA3078"/>
</linearGradient>
<linearGradient id="paint10_linear_218_84" x1="0.571783" y1="61.9059" x2="124.589" y2="61.9059" gradientUnits="userSpaceOnUse">
<stop offset="2.49422e-07" stop-color="#FD675C"/>
<stop offset="1" stop-color="#FA3078"/>
</linearGradient>
<linearGradient id="paint11_linear_218_84" x1="0.504045" y1="80.7156" x2="102.091" y2="80.7156" gradientUnits="userSpaceOnUse">
<stop offset="2.49422e-07" stop-color="#FD675C"/>
<stop offset="1" stop-color="#FA3078"/>
</linearGradient>
</defs>
</svg>
