<svg width="72" height="72" viewBox="0 0 72 72" fill="none" xmlns="http://www.w3.org/2000/svg">
<rect width="72" height="72" rx="36" fill="url(#paint0_linear_178_154)"/>
<path d="M33.4682 46.0664C31.9201 46.0664 30.7904 46.0664 29.6188 46.0664C28.8238 42.8446 26.69 40.4597 24.849 37.8656C21.4599 33.1376 21.418 26.7359 24.7653 21.9661C29.1167 15.7736 37.6941 14.2255 43.7192 18.5351C50.079 23.0539 51.5852 31.6313 47.1083 37.8656C46.648 38.4932 46.1459 39.1208 45.7275 39.7903C44.4723 41.7986 43.2589 43.807 41.92 46.0664C41.2087 46.0664 40.1208 46.0664 38.8238 46.0664C39.033 44.3091 39.5769 42.6773 40.4974 41.2547C41.7945 39.2045 43.2589 37.2798 44.556 35.2296C48.1124 29.5393 45.4346 22.2171 39.1585 20.2088C34.8489 18.8699 30.3301 20.3343 27.736 23.8908C25.1837 27.4054 25.2255 32.2171 27.8197 35.8572C29.0749 37.6145 30.3719 39.3719 31.4598 41.2547C32.2548 42.6773 32.715 44.2672 33.4682 46.0664Z" fill="white"/>
<path d="M29.954 48.7441C34.0126 48.7441 37.9456 48.7441 41.9205 48.7441C42.5481 50.7943 41.6276 53.4303 39.8703 54.7692C37.8201 56.3592 35.0586 56.5684 32.7992 55.2713C30.6235 53.9742 29.5356 51.5475 29.954 48.7441Z" fill="white"/>
<path d="M14.3053 19.2046C13.4267 18.4933 13.3012 17.4891 13.8451 16.6523C14.4309 15.8573 15.435 15.6063 16.3974 16.2339C17.7781 17.1125 19.0752 18.033 20.3723 19.0372C21.2509 19.7067 21.3764 20.7945 20.8325 21.5895C20.2467 22.3845 19.2426 22.5937 18.2802 22.0079C17.6108 21.6314 14.933 19.7485 14.3053 19.2046Z" fill="white"/>
<path d="M12.841 32.3008C11.7113 32.2171 11 31.464 11 30.4598C11 29.4556 11.7113 28.7025 12.841 28.6607C14.4728 28.577 16.1046 28.577 17.6945 28.6607C18.8242 28.7025 19.5355 29.4975 19.5355 30.5017C19.5355 31.5058 18.8242 32.2171 17.6945 32.3008C16.8996 32.3427 13.636 32.3427 12.841 32.3008Z" fill="white"/>
<path d="M16.3139 44.0999C15.2679 44.4765 14.3055 44.0999 13.8871 43.2212C13.4687 42.3007 13.8034 41.3384 14.8076 40.7945C16.2302 40.0413 17.7365 39.3719 19.2009 38.7443C20.2469 38.3259 21.2092 38.7443 21.6277 39.6229C22.0461 40.5434 21.7113 41.5058 20.7072 42.0497C20.0377 42.4263 17.1089 43.807 16.3139 44.0999Z" fill="white"/>
<path d="M57.6525 41.2966C58.5312 42.0079 58.6567 43.0539 58.1128 43.8488C57.527 44.6438 56.5228 44.8949 55.5605 44.2673C54.1797 43.3886 52.8827 42.4681 51.5856 41.4639C50.707 40.7945 50.5814 39.7066 51.1254 38.9116C51.7111 38.1167 52.7153 37.9075 53.6777 38.4932C54.3471 38.9116 57.0249 40.7945 57.6525 41.2966Z" fill="white"/>
<path d="M59.1594 28.2422C60.2891 28.3259 61.0004 29.079 61.0004 30.0832C61.0004 31.0874 60.2891 31.8405 59.1594 31.8823C57.5276 31.966 55.8958 31.966 54.3058 31.8823C53.1761 31.8405 52.4648 31.0455 52.4648 30.0414C52.4648 29.0372 53.1761 28.3259 54.3058 28.2422C55.059 28.2004 58.3226 28.2004 59.1594 28.2422Z" fill="white"/>
<path d="M55.6442 16.4431C56.6903 16.0666 57.6526 16.4431 58.071 17.3218C58.4894 18.2423 58.1547 19.2046 57.1505 19.7486C55.7279 20.5017 54.2217 21.1711 52.7572 21.7988C51.7112 22.2172 50.7489 21.7988 50.3305 20.9201C49.9121 19.9996 50.2468 19.0373 51.251 18.4933C51.9204 18.1168 54.8911 16.736 55.6442 16.4431Z" fill="white"/>
<path d="M29.8281 29.9158C29.9955 26.3593 32.5896 23.6815 35.6858 23.6815C36.1461 23.6815 36.8992 24.2673 37.0666 24.7275C37.3176 25.4807 36.69 25.8991 35.9369 26.0664C33.3428 26.5685 32.5478 27.2798 32.1294 29.7903C32.0038 30.5852 31.6273 31.171 30.8741 31.0037C30.3721 30.8363 29.9955 30.125 29.8281 29.9158Z" fill="white"/>
<defs>
<linearGradient id="paint0_linear_178_154" x1="70.2581" y1="4.7647" x2="-0.381113" y2="6.85029" gradientUnits="userSpaceOnUse">
<stop stop-color="#FF675C"/>
<stop offset="1" stop-color="#FD3078"/>
</linearGradient>
</defs>
</svg>
